Coordinates
version=1
nRows=13
nColumns=40
inDegrees=yes

Units are S.I. units (second, meters, Newtons, ...)
If the header above contains a line with 'inDegrees', this indicates whether rotational values are in degrees (yes) or radians (no).

endheader
time	pelvis_tilt	pelvis_list	pelvis_rotation	pelvis_tx	pelvis_ty	pelvis_tz	hip_flexion_r	hip_adduction_r	hip_rotation_r	knee_angle_r	knee_angle_r_beta	ankle_angle_r	subtalar_angle_r	mtp_angle_r	hip_flexion_l	hip_adduction_l	hip_rotation_l	knee_angle_l	knee_angle_l_beta	ankle_angle_l	subtalar_angle_l	mtp_angle_l	lumbar_extension	lumbar_bending	lumbar_rotation	arm_flex_r	arm_add_r	arm_rot_r	elbow_flex_r	pro_sup_r	wrist_flex_r	wrist_dev_r	arm_flex_l	arm_add_l	arm_rot_l	elbow_flex_l	pro_sup_l	wrist_flex_l	wrist_dev_l
      0.62500000	    -15.16588941	     -0.18511770	     -1.44434553	      0.17688637	      0.72675906	     -1.20609908	     59.94331766	    -35.12519408	    -13.04578229	     73.82168182	      1.28843141	     17.56768262	     -4.85789136	      0.00000000	     60.19555985	    -39.02565437	    -16.09857789	     74.25426656	      1.29598144	     19.29858769	      5.87755011	      0.00000000	    -10.68408199	      0.00030713	     -2.44930878	     44.99930811	    -15.00016196	     44.99930811	     75.00017582	     45.00000026	      0.00000000	      0.00000000	     44.99930811	    -15.00016196	     44.99930811	     75.00017582	     45.00000026	      0.00000000	      0.00000000
      0.63000000	    -15.40229942	     -0.19988149	     -1.39550837	      0.17640565	      0.72292640	     -1.20621991	     60.74728291	    -35.36619231	    -12.75890789	     74.58741020	      1.30179589	     17.92598711	     -4.36842870	      0.00000000	     61.11689413	    -39.15424558	    -15.59397469	     74.99481497	      1.30890644	     19.56769397	      6.14828584	      0.00000000	    -10.52810838	      0.02796862	     -2.51632007	     44.99931118	    -15.00016067	     44.99931118	     75.00017582	     45.00000026	      0.00000000	      0.00000000	     44.99931118	    -15.00016067	     44.99931118	     75.00017582	     45.00000026	      0.00000000	      0.00000000
      0.63500000	    -15.15303186	     -0.19752164	     -1.42066060	      0.17608531	      0.72069222	     -1.20633780	     60.90542016	    -35.53193853	    -12.54604823	     75.11241990	      1.31095904	     18.01065673	     -4.38367258	      0.00000000	     61.27832765	    -39.30470428	    -15.33425074	     75.58750605	      1.31925085	     19.73313159	      6.05312525	      0.00000000	    -11.09651308	      0.03168105	     -2.50934883	     44.99931323	    -15.00015984	     44.99931323	     75.00017582	     45.00000026	      0.00000000	      0.00000000	     44.99931323	    -15.00015984	     44.99931323	     75.00017582	     45.00000026	      0.00000000	      0.00000000
      0.64000000	    -15.06250453	     -0.19786566	     -1.40863501	      0.17571326	      0.71792231	     -1.20646532	     61.27444896	    -35.71610144	    -12.27533717	     75.72175048	      1.32159386	     18.32266943	     -4.23476308	      0.00000000	     61.68461766	    -39.42007592	    -14.96899162	     76.20319053	      1.32999658	     20.03217915	      6.15647380	      0.00000000	    -11.47334761	      0.03867639	     -2.51901043	     44.99931540	    -15.00015895	     44.99931540	     75.00017582	     45.00000026	      0.00000000	      0.00000000	     44.99931540	    -15.00015895	     44.99931540	     75.00017582	     45.00000026	      0.00000000	      0.00000000
      0.64500000	    -15.57599620	     -0.21587339	     -1.34742953	      0.17484729	      0.71331549	     -1.20665984	     62.47589487	    -35.92750110	    -11.90308776	     76.52490623	      1.33561157	     18.52125736	     -4.02725123	      0.00000000	     63.06821862	    -39.44839759	    -14.24429246	     77.02932344	      1.34441531	     20.22059935	      6.02318779	      0.00000000	    -10.93949080	      0.06547117	     -2.65252556	     44.99931933	    -15.00015732	     44.99931933	     75.00017582	     45.00000026	      0.00000000	      0.00000000	     44.99931933	    -15.00015732	     44.99931933	     75.00017582	     45.00000026	      0.00000000	      0.00000000
      0.65000000	    -15.37088098	     -0.21590806	     -1.34326482	      0.17457000	      0.71093663	     -1.20675837	     62.68016749	    -36.10973427	    -11.67172532	     77.07920127	      1.34528585	     18.71676898	     -3.92767574	      0.00000000	     63.29031484	    -39.58181953	    -13.97007017	     77.58550572	      1.35412253	     20.44563809	      6.06961304	      0.00000000	    -11.46375334	      0.07103622	     -2.64841956	     44.99932225	    -15.00015614	     44.99932225	     75.00017582	     45.00000026	      0.00000000	      0.00000000	     44.99932225	    -15.00015614	     44.99932225	     75.00017582	     45.00000026	      0.00000000	      0.00000000
      0.65500000	    -15.14771834	     -0.21223402	     -1.35850056	      0.17444281	      0.70861248	     -1.20689123	     62.85595103	    -36.31476116	    -11.47574438	     77.61435878	      1.35462611	     18.74848383	     -3.82312203	      0.00000000	     63.46213407	    -39.75594331	    -13.75869099	     78.16925022	      1.36431079	     20.53909175	      6.03339738	      0.00000000	    -11.97456058	      0.10194927	     -2.65037648	     44.99932501	    -15.00015503	     44.99932501	     75.00017582	     45.00000026	      0.00000000	      0.00000000	     44.99932501	    -15.00015503	     44.99932501	     75.00017582	     45.00000026	      0.00000000	      0.00000000
      0.66000000	    -15.32735756	     -0.20757055	     -1.32253707	      0.17404444	      0.70498887	     -1.20697975	     63.57948050	    -36.55411607	    -11.19284930	     78.31860854	      1.36691758	     19.24574959	     -3.34268499	      0.00000000	     64.25377174	    -39.83786869	    -13.27377101	     78.82768982	      1.37580273	     20.91637985	      6.42235805	      0.00000000	    -11.86135261	      0.13146796	     -2.71534026	     44.99932801	    -15.00015381	     44.99932801	     75.00017582	     45.00000026	      0.00000000	      0.00000000	     44.99932801	    -15.00015381	     44.99932801	     75.00017582	     45.00000026	      0.00000000	      0.00000000
      0.66500000	    -15.17101978	     -0.21415523	     -1.31381014	      0.17370905	      0.70249457	     -1.20714138	     63.84454248	    -36.71874602	    -10.93380847	     78.85168729	      1.37622156	     19.31632326	     -3.26633774	      0.00000000	     64.56838742	    -39.95894678	    -12.97235967	     79.40392532	      1.38585994	     21.05062122	      6.35571001	      0.00000000	    -12.36242507	      0.13266757	     -2.71596437	     44.99933039	    -15.00015286	     44.99933039	     75.00017582	     45.00000026	      0.00000000	      0.00000000	     44.99933039	    -15.00015286	     44.99933039	     75.00017582	     45.00000026	      0.00000000	      0.00000000
      0.67000000	    -15.65171216	     -0.22781054	     -1.24308449	      0.17293472	      0.69788044	     -1.20739185	     65.00622063	    -36.95762287	    -10.55922243	     79.62433034	      1.38970673	     19.59449580	     -2.89403871	      0.00000000	     65.90397889	    -39.96367075	    -12.26738766	     80.20968889	      1.39992316	     21.26579243	      6.42482040	      0.00000000	    -11.86400358	      0.15903617	     -2.86295000	     44.99933420	    -15.00015131	     44.99933420	     75.00017582	     45.00000026	      0.00000000	      0.00000000	     44.99933420	    -15.00015131	     44.99933420	     75.00017582	     45.00000026	      0.00000000	      0.00000000
      0.67500000	    -15.51808445	     -0.23672872	     -1.22574430	      0.17268145	      0.69528831	     -1.20753787	     65.28583971	    -37.10986590	    -10.27785027	     80.17254208	      1.39927483	     19.85178644	     -2.86806553	      0.00000000	     66.23801719	    -40.06132844	    -11.92438425	     80.77010891	      1.40970434	     21.54945841	      6.41026555	      0.00000000	    -12.33324420	      0.17191334	     -2.89082780	     44.99933672	    -15.00015031	     44.99933672	     75.00017582	     45.00000026	      0.00000000	      0.00000000	     44.99933672	    -15.00015031	     44.99933672	     75.00017582	     45.00000026	      0.00000000	      0.00000000
      0.68000000	    -15.67555714	     -0.26128848	     -1.19688140	      0.17225643	      0.69173269	     -1.20773072	     65.97927224	    -37.33351052	    -10.02253621	     80.82166744	      1.41060420	     19.99556488	     -2.57584316	      0.00000000	     67.04292408	    -40.15602117	    -11.44706919	     81.44787846	      1.42153365	     21.68098224	      6.49335504	      0.00000000	    -12.21393328	      0.20989070	     -3.01879166	     44.99933995	    -15.00014900	     44.99933995	     75.00017582	     45.00000026	      0.00000000	      0.00000000	     44.99933995	    -15.00014900	     44.99933995	     75.00017582	     45.00000026	      0.00000000	      0.00000000
      0.68500000	    -15.83469281	     -0.29998356	     -1.15165560	      0.17172631	      0.68817383	     -1.20797828	     66.66771679	    -37.51629379	     -9.73531866	     81.46415279	      1.42181769	     20.16986764	     -2.50804946	      0.00000000	     67.88703964	    -40.19180636	    -10.88064689	     82.11392328	      1.43315832	     21.87723426	      6.37757918	      0.00000000	    -12.20439144	      0.24178938	     -3.20975387	     44.99934400	    -15.00014736	     44.99934400	     75.00017582	     45.00000026	      0.00000000	      0.00000000	     44.99934400	    -15.00014736	     44.99934400	     75.00017582	     45.00000026	      0.00000000	      0.00000000
